<svg width="71" height="71" viewBox="0 0 71 71" fill="none" xmlns="http://www.w3.org/2000/svg">
<g filter="url(#filter0_d_632_194)">
<path d="M24.3226 34.5484C22.6419 34.5484 21.2742 33.1807 21.2742 31.5C21.2742 29.8194 22.6419 28.4517 24.3226 28.4517C26.0032 28.4517 27.3709 29.8194 27.3709 31.5C27.3709 33.1807 26.0032 34.5484 24.3226 34.5484Z" fill="#C40B0B"/>
<path d="M46.6773 34.5484C44.9966 34.5484 43.6289 33.1807 43.6289 31.5C43.6289 29.8194 44.9966 28.4517 46.6773 28.4517C48.358 28.4517 49.7257 29.8194 49.7257 31.5C49.7257 33.1807 48.358 34.5484 46.6773 34.5484Z" fill="#C40B0B"/>
<path d="M64.9677 56.9032V0H58.871V3.62656L56.2148 2.03226H14.7852L12.129 3.62656V0H6.03226V56.9032H4V63H14.1613V56.9032H12.129V46.7419H17.2097C17.2097 48.9835 19.0326 50.8064 21.2742 50.8064C23.5158 50.8064 25.3387 48.9835 25.3387 46.7419V42.6774H45.6613V46.7419C45.6613 48.9835 47.4842 50.8064 49.7258 50.8064C51.9674 50.8064 53.7903 48.9835 53.7903 46.7419H58.871V56.9032H56.8387V63H67V56.9032H64.9677ZM62.9355 2.03226V52.8387H60.9032V2.03226H62.9355ZM49.7258 36.5806V38.6129H53.7903C54.3512 38.6129 54.8064 39.0681 54.8064 39.629C54.8064 40.1899 54.3512 40.6452 53.7903 40.6452H17.2097C16.6488 40.6452 16.1935 40.1899 16.1935 39.629C16.1935 39.0681 16.6488 38.6129 17.2097 38.6129H47.6935V36.5806H19.2419V29.1019C19.2419 28.6193 19.5854 28.1996 20.0589 28.1051L24.3226 27.2526V18.2903C24.3226 17.7304 24.7778 17.2742 25.3387 17.2742H45.6613C46.2222 17.2742 46.6774 17.7304 46.6774 18.2903V27.2526L50.9411 28.1051C51.4146 28.1996 51.7581 28.6193 51.7581 29.1019V36.5806H49.7258ZM51.3404 26.1125L48.7097 25.5861V18.2903C48.7097 16.6096 47.342 15.2419 45.6613 15.2419H25.3387C23.658 15.2419 22.2903 16.6096 22.2903 18.2903V25.5861L19.6596 26.1125C18.24 26.396 17.2097 27.6529 17.2097 29.1019V29.4677H12.129V10.7364L16.475 8.12903H54.524L58.871 10.7364V29.4677H53.7903V29.1019C53.7903 27.6529 52.76 26.396 51.3404 26.1125ZM15.3491 4.06452H55.6509L58.871 5.99719V8.36681L55.0879 6.09677H15.9121L12.129 8.36681V5.99719L15.3491 4.06452ZM10.0968 2.03226V52.8387H8.06452V2.03226H10.0968ZM8.06452 56.9032V54.871H10.0968V56.9032H8.06452ZM12.129 44.7097V31.5H17.2097V36.5806C15.529 36.5806 14.1613 37.9484 14.1613 39.629C14.1613 41.3097 15.529 42.6774 17.2097 42.6774V44.7097H12.129ZM53.7903 44.7097V42.6774C55.471 42.6774 56.8387 41.3097 56.8387 39.629C56.8387 37.9484 55.471 36.5806 53.7903 36.5806V31.5H58.871V44.7097H53.7903ZM60.9032 54.871H62.9355V56.9032H60.9032V54.871Z" fill="#02133C"/>
<path d="M26.3547 26.4193H44.6451V19.3064H26.3547V26.4193Z" fill="#02133C"/>
<path d="M41.5969 32.5161H29.4033V34.5484H41.5969V32.5161Z" fill="#02133C"/>
<path d="M41.5969 28.4517H29.4033V30.4839H41.5969V28.4517Z" fill="#02133C"/>
<path d="M62.9353 48.7742H60.9031V50.8064H62.9353V48.7742Z" fill="#C40B0B"/>
<path d="M62.9353 44.7097H60.9031V46.742H62.9353V44.7097Z" fill="#C40B0B"/>
<path d="M10.0967 48.7742H8.06445V50.8064H10.0967V48.7742Z" fill="#C40B0B"/>
<path d="M10.0967 44.7097H8.06445V46.742H10.0967V44.7097Z" fill="#C40B0B"/>
</g>
<defs>
<filter id="filter0_d_632_194" x="0" y="0" width="71" height="71" filterUnits="userSpaceOnUse" color-interpolation-filters="sRGB">
<feFlood flood-opacity="0" result="BackgroundImageFix"/>
<feColorMatrix in="SourceAlpha" type="matrix" values="0 0 0 0 0 0 0 0 0 0 0 0 0 0 0 0 0 0 127 0" result="hardAlpha"/>
<feOffset dy="4"/>
<feGaussianBlur stdDeviation="2"/>
<feComposite in2="hardAlpha" operator="out"/>
<feColorMatrix type="matrix" values="0 0 0 0 0 0 0 0 0 0 0 0 0 0 0 0 0 0 0.25 0"/>
<feBlend mode="normal" in2="BackgroundImageFix" result="effect1_dropShadow_632_194"/>
<feBlend mode="normal" in="SourceGraphic" in2="effect1_dropShadow_632_194" result="shape"/>
</filter>
</defs>
</svg>
